<?xml version="1.0" standalone="no"?>
<!DOCTYPE svg PUBLIC "-//W3C//DTD SVG 20010904//EN"
 "http://www.w3.org/TR/2001/REC-SVG-20010904/DTD/svg10.dtd">
<svg version="1.0" xmlns="http://www.w3.org/2000/svg"
 width="248.000000pt" height="248.000000pt" viewBox="0 0 248.000000 248.000000"
 preserveAspectRatio="xMidYMid meet">
<metadata>
Created by potrace 1.11, written by Peter Selinger 2001-2013
</metadata>
<g transform="translate(0.000000,248.000000) scale(0.100000,-0.100000)"
fill="#000000" stroke="none">
<path d="M1176 2468 c-241 -29 -448 -190 -545 -422 -53 -127 -54 -150 -49
-1023 l5 -802 -76 -3 c-60 -2 -76 -6 -76 -18 0 -12 17 -16 77 -18 l77 -3 3
-87 c2 -69 6 -87 18 -87 12 0 16 18 18 87 l3 88 177 2 177 3 -2 242 -1 242
266 -2 267 -2 -2 253 -1 254 106 -6 c59 -3 146 -5 195 -6 l87 0 0 -75 c0 -68
2 -75 20 -75 18 0 20 7 20 74 l0 75 53 3 c38 2 52 7 52 18 0 11 -14 16 -52 18
l-52 3 -4 332 c-4 375 -10 415 -76 551 -22 44 -60 107 -86 138 -139 176 -377
273 -599 246z m206 -53 c262 -55 447 -256 498 -540 17 -91 20 -154 20 -389 l0
-281 -217 3 -216 4 6 -255 6 -255 -267 1 -267 2 2 -242 1 -243 -159 0 -159 0
-1 413 c-4 1274 -5 1248 13 1314 38 138 124 268 231 349 153 116 328 157 509
119z"/>
<path d="M1235 2172 c-22 -1 -47 -5 -55 -9 -8 -3 -24 -8 -35 -10 -10 -2 -22
-8 -26 -14 -3 -6 -10 -10 -15 -9 -11 1 -93 -62 -94 -72 0 -4 -8 -17 -17 -28
-10 -11 -18 -24 -18 -28 -1 -4 -7 -18 -14 -32 -8 -13 -14 -56 -15 -95 -1 -55
4 -81 23 -120 28 -59 60 -97 74 -88 6 3 7 1 4 -4 -9 -15 20 -38 83 -67 128
-57 255 -36 356 59 33 30 54 55 49 55 -6 0 -5 4 2 8 6 4 13 14 15 22 2 8 9 21
16 29 8 8 11 22 9 32 -3 11 -1 22 4 25 5 3 9 10 9 16 0 6 -7 5 -17 -3 -17 -13
-17 -13 0 7 14 17 16 29 8 70 -10 52 -49 134 -63 134 -5 0 -6 5 -3 10 3 6 -2
10 -11 10 -10 0 -14 3 -11 6 6 7 -35 44 -49 44 -4 0 -15 7 -24 15 -9 8 -25 16
-36 18 -10 2 -26 7 -34 10 -23 8 -70 12 -115 9z m112 -81 c23 -6 45 -16 49
-22 3 -6 12 -8 20 -5 8 3 13 2 11 -2 -1 -4 11 -21 26 -37 94 -100 72 -272 -45
-349 -37 -24 -115 -43 -165 -40 -55 4 -129 43 -176 93 -21 23 -35 41 -32 41 3
0 -1 15 -8 33 -20 48 -14 125 14 172 22 38 79 101 79 89 0 -4 11 1 25 10 23
15 111 33 145 30 8 0 34 -6 57 -13z"/>
<path d="M1203 1993 c-8 -3 -13 -23 -13 -53 0 -54 7 -59 87 -56 l48 1 3 53 c2
36 0 52 -7 47 -6 -3 -11 -1 -11 4 0 10 -81 13 -107 4z"/>
<path d="M1201 1817 c-6 -6 -11 -28 -11 -48 0 -43 12 -50 78 -47 52 2 61 11
59 63 l-2 40 -57 1 c-31 1 -61 -3 -67 -9z"/>
<path d="M874 1496 c-48 -21 -78 -77 -70 -133 8 -62 40 -99 96 -112 86 -19
170 45 170 129 0 94 -104 156 -196 116z m148 -45 c51 -58 29 -146 -44 -176
-21 -8 -50 -12 -67 -9 -78 16 -118 117 -70 178 29 37 55 47 109 42 34 -3 51
-11 72 -35z"/>
<path d="M1244 1395 c-5 -11 1 -596 5 -613 1 -2 11 -2 24 0 l22 3 1 300 c1
165 -1 306 -3 313 -7 17 -42 15 -49 -3z"/>
<path d="M878 1171 c-85 -28 -138 -95 -138 -175 0 -109 69 -183 180 -193 50
-5 64 -2 110 23 130 71 140 241 19 317 -49 30 -125 42 -171 28z m131 -27 c74
-30 121 -120 100 -197 -41 -153 -266 -173 -334 -30 -70 145 79 289 234 227z"/>
</g>
</svg>
